/* XPM */
/* This file is a part of the NsCDE - Not so Common Desktop Environment */
static char *FpMenu_xpm[] = {
/* width height num_colors chars_per_pixel */
"    12     4        3            1",
/* colors */
"        c None",
"#      s bottomShadowColor    m    black c #4c95428132e3",
".      s topShadowColor    m    white c #d18fc88bba92",
/* pixels */  
"............",
".          #",
".          #",
".###########"};
