/* XPM */
/* This file is a part of the NsCDE - Not so Common Desktop Environment */
static char * LastPressedFPSubLnch_xpm[] = {
"58 14 2 1",
".      s background m black c #a4a448484141",
"+      s background m white c #989884846565",
".........................................................+",
".+++++++++++++++++++++++++++++++++++++++++++++++++++++++.+",
".+++++++++++++++++++++++++++++++++++++++++++++++++++++++.+",
".+++++++++++++++++++++++++++++++++++++++++++++++++++++++.+",
".+++++++++++++++++++++++++++++++++++++++++++++++++++++++.+",
".+++++++++++++++++++++++++++++++++++++++++++++++++++++++.+",
".+++++++++++++++++++++++++++++++++++++++++++++++++++++++.+",
".+++++++++++++++++++++++++++++++++++++++++++++++++++++++.+",
".+++++++++++++++++++++++++++++++++++++++++++++++++++++++.+",
".+++++++++++++++++++++++++++++++++++++++++++++++++++++++.+",
".+++++++++++++++++++++++++++++++++++++++++++++++++++++++.+",
".+++++++++++++++++++++++++++++++++++++++++++++++++++++++.+",
".........................................................+",
"++++++++++++++++++++++++++++++++++++++++++++++++++++++++++"};
