/* XPM */
/* This file is a part of the NsCDE - Not so Common Desktop Environment */
static char * PressedFPL_xpm[] = {
"30 24 3 1",
" 	c None",
".      s background m black c #5c287ae0606c",
"+      s selectColor m black c #989884846565",
"..............................",
"...++++++++++++++++++++++++...",
"...++++++++++++++++++++++++...",
"...++++++++++++++++++++++++...",
"...++++++++++++++++++++++++...",
"...++++++++++++++++++++++++...",
"...++++++++++++++++++++++++...",
"...++++++++++++++++++++++++...",
"...++++++++++++++++++++++++...",
"...++++++++++++++++++++++++...",
"...++++++++++++++++++++++++...",
"...++++++++++++++++++++++++...",
"...++++++++++++++++++++++++...",
"...++++++++++++++++++++++++...",
"...++++++++++++++++++++++++...",
"...++++++++++++++++++++++++...",
"...++++++++++++++++++++++++...",
"...++++++++++++++++++++++++...",
"...++++++++++++++++++++++++...",
"...++++++++++++++++++++++++...",
"...++++++++++++++++++++++++...",
"...++++++++++++++++++++++++...",
"...++++++++++++++++++++++++...",
".............................."};
