/* XPM */
/* This file is a part of the NsCDE - Not so Common Desktop Environment */
static char * Qt5_RadioButtonSelected_xpm[] = {
"16 16 4 1",
".	c None",
"+	c #6c6c90907171",
"@	c #a4a448484141",
"$	c #bd5ecdafbfa2",
"................",
"......@@@@......",
"....@@@@@@@@.+..",
"...@@@@@@@@@@$$.",
"..@@@@@@@@@@@@$+",
"..@@@@@@@@@@@@$$",
".@@@@@@@@@@@@@@$",
".@@@@@@@@@@@@@@$",
".@@@@@@@@@@@@@@$",
".@@@@@@@@@@@@@@$",
"..@@@@@@@@@@@@$$",
"..@@@@@@@@@@@@$+",
"...@@@@@@@@@@$$.",
"..+$@@@@@@@@$$..",
"...$$$@@@@$$$...",
"....+$$$$$$+...."};
