/* XPM */
/* This file is a part of the NsCDE - Not so Common Desktop Environment */
static char * Qt5_CheckBoxChecked_xpm[] = {
"14 14 4 1",
"@  c #ffffffffffff",
".  c #6c6c90907171",
"+  c #bd5ecdafbfa2",
"#  c #35e347d93861",
"............@.",
"............@.",
".##########@@.",
".#.........@+.",
".#........@@+.",
".#.......@@.+.",
".@......@@@.+.",
".@@....@@@..+.",
".@@@...@@@..+.",
".@@@@@@@@...+.",
".#@@@@@@@...+.",
".#.@@@@@....+.",
".#..@@@@....+.",
".####@@++++++."};
