/* XPM */
/* This file is a part of the NsCDE - Not so Common Desktop Environment */
static char * SubpanelTitleActive_xpm[] = {
"16 18 3 1",
" 	c None",
"+      c #d5e6ab57a81a",
".      c #4ec322941f37",
"++++++++++++++++",
"                ",
"                ",
"                ",
"                ",
"                ",
"                ",
"                ",
"                ",
"                ",
"                ",
"                ",
"                ",
"                ",
"                ",
"                ",
"                ",
"................"};
