/* XPM */
/* This file is a part of the NsCDE - Not so Common Desktop Environment */
static char * WSM4BackBtn3_xpm[] = {
"126 30 3 1",
"       s background   m black   c #6c6c90907171",
".      s topShadowColor   m white   c #bd5ecdafbfa2",
"#      s bottomShadowColor   m white   c #35e347d93861",
"##############################################################################################################################",
"#                                                                                                                            .",
"#                                                                                                                            .",
"#                                                                                                                            .",
"#                                                                                                                            .",
"#                                                                                                                            .",
"#                                                                                                                            .",
"#                                                                                                                            .",
"#                                                                                                                            .",
"#                                                                                                                            .",
"#                                                                                                                            .",
"#                                                                                                                            .",
"#                                                                                                                            .",
"#                                                                                                                            .",
"#                                                                                                                            .",
"#                                                                                                                            .",
"#                                                                                                                            .",
"#                                                                                                                            .",
"#                                                                                                                            .",
"#                                                                                                                            .",
"#                                                                                                                            .",
"#                                                                                                                            .",
"#                                                                                                                            .",
"#                                                                                                                            .",
"#                                                                                                                            .",
"#                                                                                                                            .",
"#                                                                                                                            .",
"#                                                                                                                            .",
"#                                                                                                                            .",
"#............................................................................................................................."};
