/* XPM */
/* This file is a part of the NsCDE - Not so Common Desktop Environment */
static char * WSM4BackBtn4_xpm[] = {
"126 30 3 1",
"       s background   m black   c #8a8a46464141",
".      s topShadowColor   m white   c #c972a9bda769",
"#      s bottomShadowColor   m white   c #4145211b1ebe",
"##############################################################################################################################",
"#                                                                                                                            .",
"#                                                                                                                            .",
"#                                                                                                                            .",
"#                                                                                                                            .",
"#                                                                                                                            .",
"#                                                                                                                            .",
"#                                                                                                                            .",
"#                                                                                                                            .",
"#                                                                                                                            .",
"#                                                                                                                            .",
"#                                                                                                                            .",
"#                                                                                                                            .",
"#                                                                                                                            .",
"#                                                                                                                            .",
"#                                                                                                                            .",
"#                                                                                                                            .",
"#                                                                                                                            .",
"#                                                                                                                            .",
"#                                                                                                                            .",
"#                                                                                                                            .",
"#                                                                                                                            .",
"#                                                                                                                            .",
"#                                                                                                                            .",
"#                                                                                                                            .",
"#                                                                                                                            .",
"#                                                                                                                            .",
"#                                                                                                                            .",
"#                                                                                                                            .",
"#............................................................................................................................."};
