/* XPM */
/* This file is a part of the NsCDE - Not so Common Desktop Environment */
static char * WSM6BackBtn2_xpm[] = {
"84 28 3 1",
"       s background   m black   c #a4a48d8d4d4d",
".      s topShadowColor   m white   c #d700cca3afce",
"#      s bottomShadowColor   m white   c #52bc472126d8",
"####################################################################################",
"#                                                                                  .",
"#                                                                                  .",
"#                                                                                  .",
"#                                                                                  .",
"#                                                                                  .",
"#                                                                                  .",
"#                                                                                  .",
"#                                                                                  .",
"#                                                                                  .",
"#                                                                                  .",
"#                                                                                  .",
"#                                                                                  .",
"#                                                                                  .",
"#                                                                                  .",
"#                                                                                  .",
"#                                                                                  .",
"#                                                                                  .",
"#                                                                                  .",
"#                                                                                  .",
"#                                                                                  .",
"#                                                                                  .",
"#                                                                                  .",
"#                                                                                  .",
"#                                                                                  .",
"#                                                                                  .",
"#                                                                                  .",
"#..................................................................................."};
